{
    "asset" : {
        "generator" : "Khronos glTF Blender I/O v1.1.46",
        "version" : "2.0"
    },
    "scene" : 0,
    "scenes" : [
        {
            "name" : "Scene",
            "nodes" : [
                0,
                1,
                2
            ]
        }
    ],
    "nodes" : [
        {
            "name" : "Light",
            "rotation" : [
                0.16907575726509094,
                0.7558803558349609,
                -0.27217137813568115,
                0.570947527885437
            ],
            "translation" : [
                4.076245307922363,
                5.903861999511719,
                -1.0054539442062378
            ]
        },
        {
            "name" : "Camera",
            "rotation" : [
                0.483536034822464,
                0.33687159419059753,
                -0.20870360732078552,
                0.7804827094078064
            ],
            "translation" : [
                7.358891487121582,
                4.958309173583984,
                6.925790786743164
            ]
        },
        {
            "mesh" : 0,
            "name" : "Cylinder",
            "scale" : [
                0.8543888926506042,
                -0.20062598586082458,
                0.8543888926506042
            ],
            "translation" : [
                -0.0061719417572021484,
                -0.060755811631679535,
                0.058247923851013184
            ]
        }
    ],
    "meshes" : [
        {
            "name" : "Cylinder",
            "primitives" : [
                {
                    "attributes" : {
                        "POSITION" : 0,
                        "NORMAL" : 1,
                        "TEXCOORD_0" : 2
                    },
                    "indices" : 3
                }
            ]
        }
    ],
    "accessors" : [
        {
            "bufferView" : 0,
            "componentType" : 5126,
            "count" : 2274,
            "max" : [
                1.3389497995376587,
                1.0718330144882202,
                1.3389497995376587
            ],
            "min" : [
                -1.3389496803283691,
                -1.0576719045639038,
                -1.3389496803283691
            ],
            "type" : "VEC3"
        },
        {
            "bufferView" : 1,
            "componentType" : 5126,
            "count" : 2274,
            "type" : "VEC3"
        },
        {
            "bufferView" : 2,
            "componentType" : 5126,
            "count" : 2274,
            "type" : "VEC2"
        },
        {
            "bufferView" : 3,
            "componentType" : 5123,
            "count" : 3828,
            "type" : "SCALAR"
        }
    ],
    "bufferViews" : [
        {
            "buffer" : 0,
            "byteLength" : 27288,
            "byteOffset" : 0
        },
        {
            "buffer" : 0,
            "byteLength" : 27288,
            "byteOffset" : 27288
        },
        {
            "buffer" : 0,
            "byteLength" : 18192,
            "byteOffset" : 54576
        },
        {
            "buffer" : 0,
            "byteLength" : 7656,
            "byteOffset" : 72768
        }
    ],
    "buffers" : [
        {
            "byteLength" : 80424,
            "uri" : "data:application/octet-stream;base64,"
        }
    ]
}
